<?xml version="1.0" encoding="UTF-8"?>
<svg xmlns="http://www.w3.org/2000/svg" id="BG" viewBox="0 0 347.6 124.32">
  <defs>
    <style>
      .cls-1 {
        fill: #161616;
      }

      .cls-1, .cls-2 {
        stroke-width: 0px;
      }

      .cls-2 {
        fill: #0160e6;
      }
    </style>
  </defs>
  <g>
    <g>
      <g>
        <path class="cls-1" d="M134.96,69.25c.4.7.92,1.26,1.55,1.71s1.36.77,2.18.98c.82.21,1.67.32,2.56.32.63,0,1.29-.07,1.99-.22.69-.15,1.33-.38,1.9-.7.57-.32,1.04-.74,1.42-1.26.38-.53.57-1.19.57-1.99,0-1.35-.9-2.36-2.68-3.03-1.79-.67-4.29-1.35-7.48-2.02-1.31-.29-2.58-.64-3.82-1.04-1.24-.4-2.35-.93-3.32-1.58-.97-.65-1.75-1.47-2.34-2.46-.59-.99-.88-2.2-.88-3.63,0-2.11.41-3.83,1.23-5.18.82-1.35,1.9-2.41,3.25-3.19,1.35-.78,2.86-1.33,4.55-1.64,1.68-.32,3.41-.47,5.18-.47s3.48.17,5.15.5c1.66.34,3.15.91,4.45,1.71,1.3.8,2.39,1.86,3.25,3.19.86,1.33,1.38,3,1.55,5.02h-8.53c-.13-1.73-.78-2.89-1.96-3.51-1.18-.61-2.57-.92-4.17-.92-.51,0-1.05.03-1.64.09-.59.06-1.13.2-1.61.41-.48.21-.9.52-1.23.92-.34.4-.51.94-.51,1.61,0,.8.29,1.45.88,1.96.59.51,1.36.92,2.31,1.23.95.32,2.03.6,3.25.85,1.22.25,2.46.53,3.73.82,1.3.3,2.58.65,3.82,1.07,1.24.42,2.35.98,3.32,1.67.97.7,1.75,1.56,2.34,2.59.59,1.03.88,2.31.88,3.82,0,2.15-.43,3.95-1.29,5.4-.86,1.45-1.99,2.62-3.38,3.51-1.39.88-2.98,1.51-4.77,1.86-1.79.36-3.61.54-5.46.54s-3.75-.19-5.56-.57c-1.81-.38-3.42-1.01-4.83-1.9-1.41-.88-2.57-2.05-3.47-3.51-.91-1.45-1.4-3.27-1.48-5.46h8.53c0,.97.2,1.8.6,2.49Z"></path>
        <path class="cls-1" d="M160.95,54.75c.13-2.11.65-3.85,1.58-5.24.93-1.39,2.11-2.51,3.54-3.35,1.43-.84,3.04-1.44,4.83-1.8,1.79-.36,3.59-.54,5.4-.54,1.64,0,3.31.12,4.99.35,1.68.23,3.22.68,4.61,1.36,1.39.67,2.53,1.61,3.41,2.81.88,1.2,1.33,2.79,1.33,4.77v16.99c0,1.47.08,2.88.25,4.23.17,1.35.46,2.36.88,3.03h-9.1c-.17-.51-.31-1.02-.41-1.55-.11-.53-.18-1.06-.22-1.61-1.43,1.47-3.12,2.51-5.05,3.09-1.94.59-3.92.88-5.94.88-1.56,0-3.01-.19-4.36-.57-1.35-.38-2.53-.97-3.54-1.77-1.01-.8-1.8-1.81-2.37-3.03-.57-1.22-.85-2.67-.85-4.36,0-1.85.33-3.38.98-4.58.65-1.2,1.49-2.16,2.53-2.87,1.03-.72,2.21-1.25,3.54-1.61,1.33-.36,2.66-.64,4.01-.85,1.35-.21,2.67-.38,3.98-.51,1.3-.13,2.46-.32,3.47-.57,1.01-.25,1.81-.62,2.4-1.11.59-.48.86-1.19.82-2.12,0-.97-.16-1.74-.47-2.31-.32-.57-.74-1.01-1.26-1.33-.53-.32-1.14-.53-1.83-.63-.7-.1-1.44-.16-2.24-.16-1.77,0-3.16.38-4.17,1.14-1.01.76-1.6,2.02-1.77,3.79h-8.97ZM181.67,61.38c-.38.34-.85.6-1.42.79-.57.19-1.18.35-1.83.47-.65.13-1.34.23-2.05.32-.72.08-1.43.19-2.15.32-.67.13-1.34.3-1.99.51-.65.21-1.22.5-1.71.85-.48.36-.87.81-1.17,1.36-.3.55-.44,1.24-.44,2.08s.15,1.47.44,2.02c.29.55.7.98,1.2,1.29.51.32,1.09.54,1.77.66.67.13,1.37.19,2.08.19,1.77,0,3.14-.29,4.11-.88.97-.59,1.68-1.3,2.15-2.12.46-.82.75-1.65.85-2.49.1-.84.16-1.52.16-2.02v-3.35Z"></path>
        <path class="cls-1" d="M206.3,44.71v4.42h.13c1.18-1.68,2.6-2.99,4.26-3.92,1.66-.93,3.57-1.39,5.72-1.39s3.95.4,5.65,1.2c1.71.8,3,2.21,3.88,4.23.97-1.43,2.28-2.69,3.95-3.79,1.66-1.1,3.63-1.64,5.91-1.64,1.73,0,3.33.21,4.8.63,1.47.42,2.74,1.1,3.79,2.02,1.05.93,1.87,2.14,2.46,3.63.59,1.5.88,3.3.88,5.4v21.86h-8.97v-18.51c0-1.09-.04-2.13-.13-3.09-.08-.97-.32-1.81-.7-2.53-.38-.72-.94-1.28-1.67-1.71-.74-.42-1.74-.63-3-.63s-2.28.24-3.06.73c-.78.48-1.39,1.12-1.83,1.9-.44.78-.74,1.66-.88,2.65-.15.99-.22,1.99-.22,3v18.19h-8.97v-18.32c0-.97-.02-1.93-.06-2.87-.04-.95-.22-1.82-.54-2.62-.32-.8-.84-1.44-1.58-1.93-.74-.48-1.82-.73-3.25-.73-.42,0-.98.09-1.67.28-.69.19-1.37.55-2.02,1.07-.65.53-1.21,1.29-1.67,2.27-.46.99-.69,2.28-.69,3.88v18.95h-8.97v-32.66h8.46Z"></path>
        <path class="cls-1" d="M263.78,32.26v16.42h.13c1.09-1.68,2.58-2.92,4.45-3.7,1.87-.78,3.82-1.17,5.84-1.17,1.64,0,3.26.34,4.86,1.01,1.6.67,3.04,1.71,4.33,3.09,1.28,1.39,2.33,3.17,3.13,5.34.8,2.17,1.2,4.75,1.2,7.74s-.4,5.57-1.2,7.74c-.8,2.17-1.84,3.95-3.13,5.34-1.28,1.39-2.73,2.42-4.33,3.09-1.6.67-3.22,1.01-4.86,1.01-2.4,0-4.55-.38-6.44-1.14-1.9-.76-3.33-2.04-4.3-3.85h-.13v4.17h-8.53v-45.1h8.97ZM278.31,57.09c-.3-1.26-.76-2.38-1.39-3.35-.63-.97-1.42-1.74-2.37-2.31s-2.1-.85-3.44-.85-2.44.28-3.41.85c-.97.57-1.77,1.34-2.4,2.31-.63.97-1.1,2.09-1.39,3.35-.3,1.26-.44,2.59-.44,3.98s.15,2.65.44,3.92c.29,1.26.76,2.38,1.39,3.35.63.97,1.43,1.74,2.4,2.31.97.57,2.11.85,3.41.85s2.5-.28,3.44-.85c.95-.57,1.74-1.34,2.37-2.31.63-.97,1.09-2.08,1.39-3.35.29-1.26.44-2.57.44-3.92s-.15-2.72-.44-3.98Z"></path>
        <path class="cls-1" d="M293.03,54.75c.13-2.11.65-3.85,1.58-5.24.93-1.39,2.11-2.51,3.54-3.35,1.43-.84,3.04-1.44,4.83-1.8,1.79-.36,3.59-.54,5.4-.54,1.64,0,3.31.12,4.99.35,1.68.23,3.22.68,4.61,1.36,1.39.67,2.53,1.61,3.41,2.81.88,1.2,1.33,2.79,1.33,4.77v16.99c0,1.47.08,2.88.25,4.23.17,1.35.46,2.36.88,3.03h-9.1c-.17-.51-.31-1.02-.41-1.55-.11-.53-.18-1.06-.22-1.61-1.43,1.47-3.12,2.51-5.05,3.09-1.94.59-3.92.88-5.94.88-1.56,0-3.01-.19-4.36-.57-1.35-.38-2.53-.97-3.54-1.77-1.01-.8-1.8-1.81-2.37-3.03-.57-1.22-.85-2.67-.85-4.36,0-1.85.33-3.38.98-4.58.65-1.2,1.49-2.16,2.53-2.87,1.03-.72,2.21-1.25,3.54-1.61,1.33-.36,2.66-.64,4.01-.85,1.35-.21,2.67-.38,3.98-.51,1.3-.13,2.46-.32,3.47-.57,1.01-.25,1.81-.62,2.4-1.11.59-.48.86-1.19.82-2.12,0-.97-.16-1.74-.47-2.31-.32-.57-.74-1.01-1.26-1.33-.53-.32-1.14-.53-1.83-.63-.7-.1-1.44-.16-2.24-.16-1.77,0-3.16.38-4.17,1.14-1.01.76-1.6,2.02-1.77,3.79h-8.97ZM313.75,61.38c-.38.34-.85.6-1.42.79-.57.19-1.18.35-1.83.47-.65.13-1.34.23-2.05.32-.72.08-1.43.19-2.15.32-.67.13-1.34.3-1.99.51-.65.21-1.22.5-1.71.85-.48.36-.87.81-1.17,1.36-.3.55-.44,1.24-.44,2.08s.15,1.47.44,2.02c.29.55.7.98,1.2,1.29.51.32,1.09.54,1.77.66.67.13,1.37.19,2.08.19,1.77,0,3.14-.29,4.11-.88.97-.59,1.68-1.3,2.15-2.12.46-.82.75-1.65.85-2.49.1-.84.16-1.52.16-2.02v-3.35Z"></path>
      </g>
      <path class="cls-1" d="M330.71,46.12h-1.79v-.82h4.44v.82h-1.77v4.9h-.88v-4.9ZM333.76,45.3h1.32l1.67,4.58,1.65-4.58h1.32v5.72h-.88v-4.4l-1.63,4.4h-.98l-1.59-4.36v4.36h-.88v-5.72Z"></path>
    </g>
    <path class="cls-2" d="M22.92,109.69c-2.53,0-5.06-.96-6.99-2.89-3.86-3.86-3.86-10.12,0-13.98,8.57-8.57,18.67-15.6,28.69-21.26H15.44c-5.01,0-9.23-3.75-9.82-8.72-.59-4.98,2.64-9.6,7.51-10.77.42-.1,42.93-10.6,67.84-35.51,3.86-3.86,10.12-3.86,13.98,0,3.86,3.86,3.86,10.12,0,13.98-8.57,8.57-18.67,15.6-28.69,21.26h29.18c5.01,0,9.23,3.75,9.82,8.72.59,4.98-2.64,9.6-7.51,10.77-.42.1-42.93,10.6-67.84,35.51-1.93,1.93-4.46,2.89-6.99,2.89Z"></path>
  </g>
  <g>
    <path class="cls-1" d="M129.28,97.4h1.63v13.49h-1.63v-13.49Z"></path>
    <path class="cls-1" d="M133.16,101.01h1.6v1.61c.51-.95,1.6-1.8,3.31-1.8,2.07,0,3.86,1.29,3.86,4.26v5.81h-1.6v-5.58c0-2-1.18-3.02-2.75-3.02s-2.81,1.03-2.81,3.02v5.58h-1.6v-9.88Z"></path>
    <path class="cls-1" d="M144.73,108.88v-6.55h-1.33v-1.31h1.33v-2.53h1.6v2.53h1.96v1.31h-1.96v6.25c0,.61.3.99,1.04.99.23,0,.53-.04.89-.17v1.27c-.34.27-.87.34-1.33.34-1.31,0-2.2-.65-2.2-2.13Z"></path>
    <path class="cls-1" d="M149.57,105.95c0-3.32,2.43-5.13,4.92-5.13s5.13,1.8,4.73,5.72h-8.13c.25,2.07,1.82,3.17,3.72,3.17,1.16,0,2.22-.42,2.94-1.2l.8.82c-.89,1.1-2.32,1.75-3.91,1.75-2.66,0-5.07-1.84-5.07-5.13ZM157.82,105.32c-.11-2.03-1.65-3.12-3.31-3.12s-3.17,1.04-3.42,3.12h6.73Z"></path>
    <path class="cls-1" d="M161.05,97.4h1.6v13.49h-1.6v-13.49Z"></path>
    <path class="cls-1" d="M164.89,97.4h1.6v1.48h-1.6v-1.48ZM164.89,101.01h1.6v9.88h-1.6v-9.88Z"></path>
    <path class="cls-1" d="M170.57,114.16v-1.35c.46.3,1.41.66,2.66.66,1.94,0,3.63-.87,3.63-3.12v-1.33h-.09c-.46,1.04-1.84,2.05-3.67,2.05-2.37,0-4.84-1.75-4.84-5.13s2.47-5.13,4.84-5.13c1.82,0,3.21,1.01,3.67,2.05h.09v-1.86h1.6v9.33c0,3.5-2.7,4.5-4.98,4.5-1.33,0-2.43-.34-2.91-.68ZM173.36,109.62c1.77,0,3.55-1.23,3.55-3.67s-1.79-3.67-3.55-3.67-3.51,1.22-3.51,3.67,1.77,3.67,3.51,3.67Z"></path>
    <path class="cls-1" d="M180.22,105.95c0-3.32,2.43-5.13,4.92-5.13s5.13,1.8,4.73,5.72h-8.13c.25,2.07,1.82,3.17,3.72,3.17,1.16,0,2.22-.42,2.94-1.2l.8.82c-.89,1.1-2.32,1.75-3.91,1.75-2.66,0-5.07-1.84-5.07-5.13ZM188.46,105.32c-.11-2.03-1.65-3.12-3.31-3.12s-3.17,1.04-3.42,3.12h6.73ZM184.49,96.83h1.14l1.8,2.34-.87.74-1.5-1.98-1.5,1.98-.87-.74,1.8-2.34Z"></path>
    <path class="cls-1" d="M191.69,101.01h1.6v1.61c.51-.95,1.6-1.8,3.31-1.8,2.07,0,3.86,1.29,3.86,4.26v5.81h-1.6v-5.58c0-2-1.18-3.02-2.75-3.02s-2.81,1.03-2.81,3.02v5.58h-1.6v-9.88Z"></path>
    <path class="cls-1" d="M202.22,105.95c0-3.31,2.56-5.13,5.13-5.13,1.71,0,3.32.82,4.22,2.43l-1.22.72c-.63-1.06-1.75-1.69-2.98-1.69-1.79,0-3.55,1.33-3.55,3.67s1.77,3.67,3.55,3.67c1.23,0,2.36-.63,2.98-1.69l1.22.72c-.89,1.6-2.51,2.43-4.22,2.43-2.56,0-5.13-1.82-5.13-5.13Z"></path>
    <path class="cls-1" d="M213.34,97.4h1.6v1.48h-1.6v-1.48ZM213.34,101.01h1.6v9.88h-1.6v-9.88Z"></path>
    <path class="cls-1" d="M216.7,105.95c0-3.38,2.45-5.13,4.84-5.13,1.84,0,3.23,1.01,3.7,2.05h.06v-1.86h1.6v9.88h-1.6v-1.86h-.06c-.48,1.04-1.86,2.05-3.7,2.05-2.39,0-4.84-1.75-4.84-5.13ZM221.81,109.62c1.79,0,3.55-1.23,3.55-3.67s-1.77-3.67-3.55-3.67-3.51,1.22-3.51,3.67,1.77,3.67,3.51,3.67Z"></path>
    <path class="cls-1" d="M233.21,97.4h4.05c3.99,0,6.63,2.74,6.63,6.74s-2.64,6.74-6.63,6.74h-4.05v-13.49ZM237.2,109.33c3.21,0,5-2.07,5-5.19s-1.79-5.19-5-5.19h-2.36v10.37h2.36Z"></path>
    <path class="cls-1" d="M245.75,97.4h1.6v1.48h-1.6v-1.48ZM245.75,101.01h1.6v9.88h-1.6v-9.88Z"></path>
    <path class="cls-1" d="M251.43,114.16v-1.35c.46.3,1.41.66,2.66.66,1.94,0,3.63-.87,3.63-3.12v-1.33h-.09c-.46,1.04-1.84,2.05-3.67,2.05-2.37,0-4.84-1.75-4.84-5.13s2.47-5.13,4.84-5.13c1.82,0,3.21,1.01,3.67,2.05h.09v-1.86h1.6v9.33c0,3.5-2.7,4.5-4.98,4.5-1.33,0-2.43-.34-2.91-.68ZM254.22,109.62c1.77,0,3.55-1.23,3.55-3.67s-1.79-3.67-3.55-3.67-3.51,1.22-3.51,3.67,1.77,3.67,3.51,3.67Z"></path>
    <path class="cls-1" d="M261.56,97.4h1.6v1.48h-1.6v-1.48ZM261.56,101.01h1.6v9.88h-1.6v-9.88Z"></path>
    <path class="cls-1" d="M266.25,108.88v-6.55h-1.33v-1.31h1.33v-2.53h1.6v2.53h1.96v1.31h-1.96v6.25c0,.61.3.99,1.04.99.23,0,.53-.04.89-.17v1.27c-.34.27-.87.34-1.33.34-1.31,0-2.2-.65-2.2-2.13Z"></path>
    <path class="cls-1" d="M271.09,105.95c0-3.38,2.45-5.13,4.84-5.13,1.84,0,3.23,1.01,3.7,2.05h.06v-1.86h1.6v9.88h-1.6v-1.86h-.06c-.48,1.04-1.86,2.05-3.7,2.05-2.39,0-4.84-1.75-4.84-5.13ZM276.21,109.62c1.79,0,3.55-1.23,3.55-3.67s-1.77-3.67-3.55-3.67-3.51,1.22-3.51,3.67,1.77,3.67,3.51,3.67Z"></path>
    <path class="cls-1" d="M283.54,97.4h1.6v13.49h-1.6v-13.49Z"></path>
  </g>
</svg>
